ISO-10303-21;
HEADER;
FILE_DESCRIPTION(('FreeCAD Model'),'2;1');
FILE_NAME('Open CASCADE Shape Model','2026-08-30T16:41:00',('FreeCAD'),(
    'FreeCAD'),'Open CASCADE STEP processor 7.8','FreeCAD','Unknown');
FILE_SCHEMA(('AUTOMOTIVE_DESIGN_CC2 { 1 2 10303 214 -1 1 5 4 }'));
ENDSEC;
DATA;
#1 = APPLICATION_PROTOCOL_DEFINITION('committee draft',
  'automotive_design',1997,#2);
#2 = APPLICATION_CONTEXT(
  'core data for automotive mechanical design processes');
#3 = SHAPE_DEFINITION_REPRESENTATION(#4,#10);
#4 = PRODUCT_DEFINITION_SHAPE('','',#5);
#5 = PRODUCT_DEFINITION('design','',#6,#9);
#6 = PRODUCT_DEFINITION_FORMATION('','',#7);
#7 = PRODUCT('Open CASCADE STEP translator 7.8 4',
  'Open CASCADE STEP translator 7.8 4','',(#8));
#8 = MECHANICAL_CONTEXT('',#2,'mechanical');
#9 = PRODUCT_DEFINITION_CONTEXT('part definition',#2,'design');
#10 = SHAPE_REPRESENTATION('',(#11,#15,#85,#155),#225);
#11 = AXIS2_PLACEMENT_3D('',#12,#13,#14);
#12 = CARTESIAN_POINT('',(0.,0.,0.));
#13 = DIRECTION('',(0.,0.,1.));
#14 = DIRECTION('',(1.,0.,-0.));
#15 = SHELL_BASED_SURFACE_MODEL('',(#16));
#16 = OPEN_SHELL('',(#17));
#17 = ADVANCED_FACE('',(#18),#31,.T.);
#18 = FACE_BOUND('',#19,.T.);
#19 = EDGE_LOOP('',(#20,#42,#69,#84));
#20 = ORIENTED_EDGE('',*,*,#21,.F.);
#21 = EDGE_CURVE('',#22,#22,#24,.T.);
#22 = VERTEX_POINT('',#23);
#23 = CARTESIAN_POINT('',(-4.415431086943E-28,22.17,-12.86999563468));
#24 = SURFACE_CURVE('',#25,(#30),.PCURVE_S1.);
#25 = CIRCLE('',#26,17.869995634685);
#26 = AXIS2_PLACEMENT_3D('',#27,#28,#29);
#27 = CARTESIAN_POINT('',(-5.956787425804E-30,22.17,5.));
#28 = DIRECTION('',(6.982962677686E-15,1.,-3.712724831391E-15));
#29 = DIRECTION('',(-2.437528974115E-29,-3.712724831391E-15,-1.));
#30 = PCURVE('',#31,#36);
#31 = TOROIDAL_SURFACE('',#32,17.869995634685,1.750000044498);
#32 = AXIS2_PLACEMENT_3D('',#33,#34,#35);
#33 = CARTESIAN_POINT('',(-1.222018499668E-14,20.419999955502,5.));
#34 = DIRECTION('',(6.982962677686E-15,1.,-3.712724831391E-15));
#35 = DIRECTION('',(-2.433181416065E-29,-3.712724831391E-15,-1.));
#36 = DEFINITIONAL_REPRESENTATION('',(#37),#41);
#37 = LINE('',#38,#39);
#38 = CARTESIAN_POINT('',(0.,7.853981633974));
#39 = VECTOR('',#40,1.);
#40 = DIRECTION('',(1.,0.));
#41 = ( GEOMETRIC_REPRESENTATION_CONTEXT(2) 
PARAMETRIC_REPRESENTATION_CONTEXT() REPRESENTATION_CONTEXT('2D SPACE',''
  ) );
#42 = ORIENTED_EDGE('',*,*,#43,.F.);
#43 = EDGE_CURVE('',#44,#22,#46,.T.);
#44 = VERTEX_POINT('',#45);
#45 = CARTESIAN_POINT('',(-6.486098503666E-15,21.241153777695,
    -14.41537796797));
#46 = SEAM_CURVE('',#47,(#55,#62),.PCURVE_S1.);
#47 = ( BOUNDED_CURVE() B_SPLINE_CURVE(6,(#48,#49,#50,#51,#52,#53,#54),
.UNSPECIFIED.,.F.,.F.) B_SPLINE_CURVE_WITH_KNOTS((7,7),(0.48841946574,
1.570796326795),.PIECEWISE_BEZIER_KNOTS.) CURVE() 
GEOMETRIC_REPRESENTATION_ITEM() RATIONAL_B_SPLINE_CURVE((1.01476757622,
    1.004825476539,0.999017363786,0.997101910776,0.999017363786,
1.004825476539,1.01476757622)) REPRESENTATION_ITEM('') );
#48 = CARTESIAN_POINT('',(-1.730702407123E-15,21.241153777695,
    -14.41537796797));
#49 = CARTESIAN_POINT('',(1.98634456938E-16,21.522693009888,
    -14.26577937891));
#50 = CARTESIAN_POINT('',(1.862311326616E-15,21.768275279821,
    -14.05667845446));
#51 = CARTESIAN_POINT('',(3.168648040825E-15,21.96441423139,
    -13.79826000974));
#52 = CARTESIAN_POINT('',(4.047385533338E-15,22.100582827531,
    -13.50379660909));
#53 = CARTESIAN_POINT('',(4.454974156933E-15,22.17,-13.18881231729));
#54 = CARTESIAN_POINT('',(4.376886590958E-15,22.17,-12.86999563468));
#55 = PCURVE('',#31,#56);
#56 = DEFINITIONAL_REPRESENTATION('',(#57),#61);
#57 = LINE('',#58,#59);
#58 = CARTESIAN_POINT('',(0.,6.28318530718));
#59 = VECTOR('',#60,1.);
#60 = DIRECTION('',(0.,1.));
#61 = ( GEOMETRIC_REPRESENTATION_CONTEXT(2) 
PARAMETRIC_REPRESENTATION_CONTEXT() REPRESENTATION_CONTEXT('2D SPACE',''
  ) );
#62 = PCURVE('',#31,#63);
#63 = DEFINITIONAL_REPRESENTATION('',(#64),#68);
#64 = LINE('',#65,#66);
#65 = CARTESIAN_POINT('',(6.28318530718,6.28318530718));
#66 = VECTOR('',#67,1.);
#67 = DIRECTION('',(0.,1.));
#68 = ( GEOMETRIC_REPRESENTATION_CONTEXT(2) 
PARAMETRIC_REPRESENTATION_CONTEXT() REPRESENTATION_CONTEXT('2D SPACE',''
  ) );
#69 = ORIENTED_EDGE('',*,*,#70,.T.);
#70 = EDGE_CURVE('',#44,#44,#71,.T.);
#71 = SURFACE_CURVE('',#72,(#77),.PCURVE_S1.);
#72 = CIRCLE('',#73,19.415377967973);
#73 = AXIS2_PLACEMENT_3D('',#74,#75,#76);
#74 = CARTESIAN_POINT('',(-6.486098503665E-15,21.241153777695,5.));
#75 = DIRECTION('',(6.982962677686E-15,1.,-3.712724831391E-15));
#76 = DIRECTION('',(-2.436624730816E-29,-3.712724831391E-15,-1.));
#77 = PCURVE('',#31,#78);
#78 = DEFINITIONAL_REPRESENTATION('',(#79),#83);
#79 = LINE('',#80,#81);
#80 = CARTESIAN_POINT('',(0.,6.77160477292));
#81 = VECTOR('',#82,1.);
#82 = DIRECTION('',(1.,0.));
#83 = ( GEOMETRIC_REPRESENTATION_CONTEXT(2) 
PARAMETRIC_REPRESENTATION_CONTEXT() REPRESENTATION_CONTEXT('2D SPACE',''
  ) );
#84 = ORIENTED_EDGE('',*,*,#43,.T.);
#85 = SHELL_BASED_SURFACE_MODEL('',(#86));
#86 = OPEN_SHELL('',(#87));
#87 = ADVANCED_FACE('',(#88),#101,.T.);
#88 = FACE_BOUND('',#89,.T.);
#89 = EDGE_LOOP('',(#90,#112,#139,#154));
#90 = ORIENTED_EDGE('',*,*,#91,.F.);
#91 = EDGE_CURVE('',#92,#92,#94,.T.);
#92 = VERTEX_POINT('',#93);
#93 = CARTESIAN_POINT('',(-6.486098503666E-15,21.241153777695,
    -14.41537796797));
#94 = SURFACE_CURVE('',#95,(#100),.PCURVE_S1.);
#95 = CIRCLE('',#96,19.415377967973);
#96 = AXIS2_PLACEMENT_3D('',#97,#98,#99);
#97 = CARTESIAN_POINT('',(-6.486098503665E-15,21.241153777695,5.));
#98 = DIRECTION('',(6.982962677686E-15,1.,-3.712724831391E-15));
#99 = DIRECTION('',(-2.436624730816E-29,-3.712724831391E-15,-1.));
#100 = PCURVE('',#101,#106);
#101 = TOROIDAL_SURFACE('',#102,14.999999872861,5.000000127139);
#102 = AXIS2_PLACEMENT_3D('',#103,#104,#105);
#103 = CARTESIAN_POINT('',(-2.286920276942E-14,18.895,5.));
#104 = DIRECTION('',(6.982962677686E-15,1.,-3.712724831391E-15));
#105 = DIRECTION('',(-2.434060679439E-29,-3.712724831391E-15,-1.));
#106 = DEFINITIONAL_REPRESENTATION('',(#107),#111);
#107 = LINE('',#108,#109);
#108 = CARTESIAN_POINT('',(0.,6.77160477292));
#109 = VECTOR('',#110,1.);
#110 = DIRECTION('',(1.,0.));
#111 = ( GEOMETRIC_REPRESENTATION_CONTEXT(2) 
PARAMETRIC_REPRESENTATION_CONTEXT() REPRESENTATION_CONTEXT('2D SPACE',''
  ) );
#112 = ORIENTED_EDGE('',*,*,#113,.F.);
#113 = EDGE_CURVE('',#114,#92,#116,.T.);
#114 = VERTEX_POINT('',#115);
#115 = CARTESIAN_POINT('',(-3.925230703518E-14,16.548846222305,
    -14.41537796797));
#116 = SEAM_CURVE('',#117,(#125,#132),.PCURVE_S1.);
#117 = B_SPLINE_CURVE_WITH_KNOTS('',6,(#118,#119,#120,#121,#122,#123,
    #124),.UNSPECIFIED.,.F.,.F.,(7,7),(-0.48841946574,0.48841946574),
  .PIECEWISE_BEZIER_KNOTS.);
#118 = CARTESIAN_POINT('',(-3.449691093864E-14,16.548846222305,
    -14.41537796797));
#119 = CARTESIAN_POINT('',(-2.938363739449E-14,17.267698425723,
    -14.79734702618));
#120 = CARTESIAN_POINT('',(-2.37836994784E-14,18.061169738157,
    -15.03887525946));
#121 = CARTESIAN_POINT('',(-1.794079760837E-14,18.895,-15.12174107865));
#122 = CARTESIAN_POINT('',(-1.213848828244E-14,19.728830261843,
    -15.03887525946));
#123 = CARTESIAN_POINT('',(-6.656865077461E-15,20.522301574277,
    -14.79734702618));
#124 = CARTESIAN_POINT('',(-1.730702407123E-15,21.241153777695,
    -14.41537796797));
#125 = PCURVE('',#101,#126);
#126 = DEFINITIONAL_REPRESENTATION('',(#127),#131);
#127 = LINE('',#128,#129);
#128 = CARTESIAN_POINT('',(0.,6.28318530718));
#129 = VECTOR('',#130,1.);
#130 = DIRECTION('',(0.,1.));
#131 = ( GEOMETRIC_REPRESENTATION_CONTEXT(2) 
PARAMETRIC_REPRESENTATION_CONTEXT() REPRESENTATION_CONTEXT('2D SPACE',''
  ) );
#132 = PCURVE('',#101,#133);
#133 = DEFINITIONAL_REPRESENTATION('',(#134),#138);
#134 = LINE('',#135,#136);
#135 = CARTESIAN_POINT('',(6.28318530718,6.28318530718));
#136 = VECTOR('',#137,1.);
#137 = DIRECTION('',(0.,1.));
#138 = ( GEOMETRIC_REPRESENTATION_CONTEXT(2) 
PARAMETRIC_REPRESENTATION_CONTEXT() REPRESENTATION_CONTEXT('2D SPACE',''
  ) );
#139 = ORIENTED_EDGE('',*,*,#140,.T.);
#140 = EDGE_CURVE('',#114,#114,#141,.T.);
#141 = SURFACE_CURVE('',#142,(#147),.PCURVE_S1.);
#142 = CIRCLE('',#143,19.415377967973);
#143 = AXIS2_PLACEMENT_3D('',#144,#145,#146);
#144 = CARTESIAN_POINT('',(-3.925230703518E-14,16.548846222305,5.));
#145 = DIRECTION('',(6.982962677686E-15,1.,-3.712724831391E-15));
#146 = DIRECTION('',(-2.448459876595E-29,-3.712724831391E-15,-1.));
#147 = PCURVE('',#101,#148);
#148 = DEFINITIONAL_REPRESENTATION('',(#149),#153);
#149 = LINE('',#150,#151);
#150 = CARTESIAN_POINT('',(0.,5.79476584144));
#151 = VECTOR('',#152,1.);
#152 = DIRECTION('',(1.,0.));
#153 = ( GEOMETRIC_REPRESENTATION_CONTEXT(2) 
PARAMETRIC_REPRESENTATION_CONTEXT() REPRESENTATION_CONTEXT('2D SPACE',''
  ) );
#154 = ORIENTED_EDGE('',*,*,#113,.T.);
#155 = SHELL_BASED_SURFACE_MODEL('',(#156));
#156 = OPEN_SHELL('',(#157));
#157 = ADVANCED_FACE('',(#158),#171,.T.);
#158 = FACE_BOUND('',#159,.T.);
#159 = EDGE_LOOP('',(#160,#182,#209,#224));
#160 = ORIENTED_EDGE('',*,*,#161,.F.);
#161 = EDGE_CURVE('',#162,#162,#164,.T.);
#162 = VERTEX_POINT('',#163);
#163 = CARTESIAN_POINT('',(-3.925230703518E-14,16.548846222305,
    -14.41537796797));
#164 = SURFACE_CURVE('',#165,(#170),.PCURVE_S1.);
#165 = CIRCLE('',#166,19.415377967973);
#166 = AXIS2_PLACEMENT_3D('',#167,#168,#169);
#167 = CARTESIAN_POINT('',(-3.925230703518E-14,16.548846222305,5.));
#168 = DIRECTION('',(6.982962677686E-15,1.,-3.712724831391E-15));
#169 = DIRECTION('',(-2.448459876595E-29,-3.712724831391E-15,-1.));
#170 = PCURVE('',#171,#176);
#171 = TOROIDAL_SURFACE('',#172,17.869995634685,1.750000044498);
#172 = AXIS2_PLACEMENT_3D('',#173,#174,#175);
#173 = CARTESIAN_POINT('',(-3.351822054217E-14,17.370000044498,5.));
#174 = DIRECTION('',(6.982962677686E-15,1.,-3.712724831391E-15));
#175 = DIRECTION('',(-2.448887270242E-29,-3.712724831391E-15,-1.));
#176 = DEFINITIONAL_REPRESENTATION('',(#177),#181);
#177 = LINE('',#178,#179);
#178 = CARTESIAN_POINT('',(0.,5.79476584144));
#179 = VECTOR('',#180,1.);
#180 = DIRECTION('',(1.,0.));
#181 = ( GEOMETRIC_REPRESENTATION_CONTEXT(2) 
PARAMETRIC_REPRESENTATION_CONTEXT() REPRESENTATION_CONTEXT('2D SPACE',''
  ) );
#182 = ORIENTED_EDGE('',*,*,#183,.F.);
#183 = EDGE_CURVE('',#184,#162,#186,.T.);
#184 = VERTEX_POINT('',#185);
#185 = CARTESIAN_POINT('',(-4.573840553885E-14,15.62,-12.86999563468));
#186 = SEAM_CURVE('',#187,(#195,#202),.PCURVE_S1.);
#187 = ( BOUNDED_CURVE() B_SPLINE_CURVE(6,(#188,#189,#190,#191,#192,#193
,#194),.UNSPECIFIED.,.F.,.F.) B_SPLINE_CURVE_WITH_KNOTS((7,7),(
4.712388980385,5.79476584144),.PIECEWISE_BEZIER_KNOTS.) CURVE() 
GEOMETRIC_REPRESENTATION_ITEM() RATIONAL_B_SPLINE_CURVE((1.01476757622,
    1.004825476539,0.999017363786,0.997101910776,0.999017363786,
1.004825476539,1.01476757622)) REPRESENTATION_ITEM('') );
#188 = CARTESIAN_POINT('',(-4.136151894789E-14,15.62,-12.86999563468));
#189 = CARTESIAN_POINT('',(-4.128343138191E-14,15.62,-13.18881231729));
#190 = CARTESIAN_POINT('',(-4.072154495642E-14,15.689417172469,
    -13.50379660909));
#191 = CARTESIAN_POINT('',(-3.969856199948E-14,15.82558576861,
    -13.79826000974));
#192 = CARTESIAN_POINT('',(-3.826563675681E-14,16.021724720178,
    -14.05667845446));
#193 = CARTESIAN_POINT('',(-3.6499529976E-14,16.267306990112,
    -14.26577937891));
#194 = CARTESIAN_POINT('',(-3.449691093864E-14,16.548846222305,
    -14.41537796797));
#195 = PCURVE('',#171,#196);
#196 = DEFINITIONAL_REPRESENTATION('',(#197),#201);
#197 = LINE('',#198,#199);
#198 = CARTESIAN_POINT('',(0.,0.));
#199 = VECTOR('',#200,1.);
#200 = DIRECTION('',(0.,1.));
#201 = ( GEOMETRIC_REPRESENTATION_CONTEXT(2) 
PARAMETRIC_REPRESENTATION_CONTEXT() REPRESENTATION_CONTEXT('2D SPACE',''
  ) );
#202 = PCURVE('',#171,#203);
#203 = DEFINITIONAL_REPRESENTATION('',(#204),#208);
#204 = LINE('',#205,#206);
#205 = CARTESIAN_POINT('',(6.28318530718,0.));
#206 = VECTOR('',#207,1.);
#207 = DIRECTION('',(0.,1.));
#208 = ( GEOMETRIC_REPRESENTATION_CONTEXT(2) 
PARAMETRIC_REPRESENTATION_CONTEXT() REPRESENTATION_CONTEXT('2D SPACE',''
  ) );
#209 = ORIENTED_EDGE('',*,*,#210,.T.);
#210 = EDGE_CURVE('',#184,#184,#211,.T.);
#211 = SURFACE_CURVE('',#212,(#217),.PCURVE_S1.);
#212 = CIRCLE('',#213,17.869995634685);
#213 = AXIS2_PLACEMENT_3D('',#214,#215,#216);
#214 = CARTESIAN_POINT('',(-4.573840553885E-14,15.62,5.));
#215 = DIRECTION('',(6.982962677686E-15,1.,-3.712724831391E-15));
#216 = DIRECTION('',(-2.445838707348E-29,-3.712724831391E-15,-1.));
#217 = PCURVE('',#171,#218);
#218 = DEFINITIONAL_REPRESENTATION('',(#219),#223);
#219 = LINE('',#220,#221);
#220 = CARTESIAN_POINT('',(0.,4.712388980385));
#221 = VECTOR('',#222,1.);
#222 = DIRECTION('',(1.,0.));
#223 = ( GEOMETRIC_REPRESENTATION_CONTEXT(2) 
PARAMETRIC_REPRESENTATION_CONTEXT() REPRESENTATION_CONTEXT('2D SPACE',''
  ) );
#224 = ORIENTED_EDGE('',*,*,#183,.T.);
#225 = ( GEOMETRIC_REPRESENTATION_CONTEXT(3) 
GLOBAL_UNCERTAINTY_ASSIGNED_CONTEXT((#229)) GLOBAL_UNIT_ASSIGNED_CONTEXT
((#226,#227,#228)) REPRESENTATION_CONTEXT('Context #1',
  '3D Context with UNIT and UNCERTAINTY') );
#226 = ( LENGTH_UNIT() NAMED_UNIT(*) SI_UNIT(.MILLI.,.METRE.) );
#227 = ( NAMED_UNIT(*) PLANE_ANGLE_UNIT() SI_UNIT($,.RADIAN.) );
#228 = ( NAMED_UNIT(*) SI_UNIT($,.STERADIAN.) SOLID_ANGLE_UNIT() );
#229 = UNCERTAINTY_MEASURE_WITH_UNIT(LENGTH_MEASURE(1.E-05),#226,
  'distance_accuracy_value','confusion accuracy');
#230 = PRODUCT_TYPE('part',$,(#7));
#231 = COLOUR_RGB('',0.110000000,0.110000000,0.120000000);
#232 = FILL_AREA_STYLE_COLOUR('',#231);
#233 = FILL_AREA_STYLE('',(#232));
#234 = SURFACE_STYLE_FILL_AREA(#233);
#235 = SURFACE_SIDE_STYLE('',(#234));
#236 = SURFACE_STYLE_USAGE(.BOTH.,#235);
#237 = PRESENTATION_STYLE_ASSIGNMENT((#236));
#238 = STYLED_ITEM('color',(#237),#15);
#239 = STYLED_ITEM('color',(#237),#85);
#240 = STYLED_ITEM('color',(#237),#155);
#241 = MECHANICAL_DESIGN_GEOMETRIC_PRESENTATION_REPRESENTATION('',(#238,#239,#240),#225);
ENDSEC;
END-ISO-10303-21;
